<?xml version="1.0" encoding="UTF-8"?>
<svg xmlns="http://www.w3.org/2000/svg" viewBox="0 0 2560 2000" font-family="Helvetica, Arial, sans-serif" font-size="11" stroke-linecap="square">
  <rect width="100%" height="100%" fill="white"/>
  <text x="120" y="60" font-size="22" font-weight="bold" fill="#111">SLATE 2026 RV — ELECTRICAL ONE-LINE SCHEMATIC</text>
  <text x="120" y="85" font-size="11" fill="#555">One-line schematic. Not a physical installation layout.</text>
  <text x="120" y="105" font-size="11" fill="#555">Layers: ELEC-DC (red)  ELEC-AC (blue)  ELEC-GND (green)  TEXT</text>
  <polyline points="340.0,240.0 420.0,240.0" fill="none" stroke="#c0392b" stroke-width="2"/>
  <text x="380.0" y="228.0" text-anchor="middle" fill="#333" font-size="10">6 AWG 125°C</text>
  <polyline points="600.0,240.0 680.0,240.0" fill="none" stroke="#c0392b" stroke-width="2"/>
  <text x="640.0" y="228.0" text-anchor="middle" fill="#333" font-size="10">6 AWG 125°C</text>
  <polyline points="900.0,240.0 980.0,240.0" fill="none" stroke="#c0392b" stroke-width="2"/>
  <text x="940.0" y="228.0" text-anchor="middle" fill="#333" font-size="10">4 AWG 125°C</text>
  <polyline points="1080.0,280.0 1080.0,520.0 820.0,520.0 820.0,540.0" fill="none" stroke="#c0392b" stroke-width="2"/>
  <text x="1086.0" y="400.0" text-anchor="start" fill="#333" font-size="10">4 AWG 125°C</text>
  <polyline points="1540.0,240.0 1460.0,240.0" fill="none" stroke="#c0392b" stroke-width="2"/>
  <text x="1500.0" y="228.0" text-anchor="middle" fill="#333" font-size="10">4 AWG 125°C</text>
  <polyline points="1360.0,200.0 1360.0,130.0 790.0,130.0 790.0,180.0" fill="none" stroke="#c0392b" stroke-width="2"/>
  <text x="1366.0" y="165.0" text-anchor="start" fill="#333" font-size="10">4 AWG 125°C</text>
  <polyline points="750.0,540.0 750.0,460.0 1020.0,460.0 1020.0,540.0" fill="none" stroke="#c0392b" stroke-width="2"/>
  <text x="756.0" y="500.0" text-anchor="start" fill="#333" font-size="10">2/0 AWG 125°C</text>
  <polyline points="1100.0,570.0 1540.0,570.0 1540.0,570.0" fill="none" stroke="#c0392b" stroke-width="2"/>
  <text x="1320.0" y="558.0" text-anchor="middle" fill="#333" font-size="10">2/0 AWG 125°C</text>
  <polyline points="1540.0,570.0 1640.0,570.0 1640.0,580.0" fill="none" stroke="#c0392b" stroke-width="2"/>
  <text x="1590.0" y="558.0" text-anchor="middle" fill="#333" font-size="10">2/0 AWG 125°C</text>
  <polyline points="1540.0,570.0 1540.0,1440.0 810.0,1440.0 810.0,1480.0" fill="none" stroke="#c0392b" stroke-width="2"/>
  <text x="1546.0" y="1005.0" text-anchor="start" fill="#333" font-size="10">2/0 AWG 125°C</text>
  <polyline points="750.0,700.0 750.0,760.0 1020.0,760.0 1020.0,720.0" fill="none" stroke="#c0392b" stroke-width="2"/>
  <text x="756.0" y="730.0" text-anchor="start" fill="#333" font-size="10">2/0 AWG 125°C</text>
  <polyline points="1100.0,690.0 1140.0,690.0" fill="none" stroke="#c0392b" stroke-width="2"/>
  <polyline points="1320.0,690.0 1380.0,685.0" fill="none" stroke="#1e8449" stroke-width="2"/>
  <text x="1356.0" y="687.5" text-anchor="start" fill="#333" font-size="10">4 AWG 125°C</text>
  <polyline points="1470.0,710.0 1470.0,740.0 1470.0,740.0" fill="none" stroke="#1e8449" stroke-width="2"/>
  <text x="1476.0" y="725.0" text-anchor="start" fill="#333" font-size="10">8 AWG 125°C</text>
  <polyline points="1230.0,720.0 1230.0,1420.0 730.0,1420.0 730.0,1480.0" fill="none" stroke="#c0392b" stroke-width="2"/>
  <text x="1236.0" y="1070.0" text-anchor="start" fill="#333" font-size="10">2/0 AWG 125°C</text>
  <polyline points="1860.0,580.0 2160.0,580.0" fill="none" stroke="#c0392b" stroke-width="2"/>
  <text x="2010.0" y="568.0" text-anchor="middle" fill="#333" font-size="10">2/0 AWG 125°C</text>
  <polyline points="2160.0,1285.0 2160.0,185.0" fill="none" stroke="#c0392b" stroke-width="2"/>
  <polyline points="2160.0,185.0 2200.0,185.0" fill="none" stroke="#c0392b" stroke-width="2"/>
  <text x="2180.0" y="173.0" text-anchor="middle" fill="#333" font-size="10">8 AWG 125°C</text>
  <polyline points="2160.0,285.0 2200.0,285.0" fill="none" stroke="#c0392b" stroke-width="2"/>
  <text x="2180.0" y="273.0" text-anchor="middle" fill="#333" font-size="10">SUPPLIED WIRE</text>
  <polyline points="2160.0,385.0 2200.0,385.0" fill="none" stroke="#c0392b" stroke-width="2"/>
  <text x="2180.0" y="373.0" text-anchor="middle" fill="#333" font-size="10">12/2 125°C</text>
  <polyline points="2160.0,485.0 2200.0,485.0" fill="none" stroke="#c0392b" stroke-width="2"/>
  <text x="2180.0" y="473.0" text-anchor="middle" fill="#333" font-size="10">14/2 125°C</text>
  <polyline points="2160.0,585.0 2200.0,585.0" fill="none" stroke="#c0392b" stroke-width="2"/>
  <text x="2180.0" y="573.0" text-anchor="middle" fill="#333" font-size="10">14/2 125°C</text>
  <polyline points="2160.0,685.0 2200.0,685.0" fill="none" stroke="#c0392b" stroke-width="2"/>
  <text x="2180.0" y="673.0" text-anchor="middle" fill="#333" font-size="10">12/2 125°C</text>
  <polyline points="2160.0,785.0 2200.0,785.0" fill="none" stroke="#c0392b" stroke-width="2"/>
  <text x="2180.0" y="773.0" text-anchor="middle" fill="#333" font-size="10">12/2 125°C</text>
  <polyline points="2160.0,885.0 2200.0,885.0" fill="none" stroke="#c0392b" stroke-width="2"/>
  <text x="2180.0" y="873.0" text-anchor="middle" fill="#333" font-size="10">14/2 125°C</text>
  <polyline points="2160.0,985.0 2200.0,985.0" fill="none" stroke="#c0392b" stroke-width="2"/>
  <text x="2180.0" y="973.0" text-anchor="middle" fill="#333" font-size="10">14/2 125°C</text>
  <polyline points="2160.0,1085.0 2200.0,1085.0" fill="none" stroke="#c0392b" stroke-width="2"/>
  <text x="2180.0" y="1073.0" text-anchor="middle" fill="#333" font-size="10">12/2 125°C</text>
  <polyline points="2160.0,1185.0 2200.0,1185.0" fill="none" stroke="#c0392b" stroke-width="2"/>
  <text x="2180.0" y="1173.0" text-anchor="middle" fill="#333" font-size="10">14/2 125°C</text>
  <polyline points="2160.0,1285.0 2200.0,1285.0" fill="none" stroke="#c0392b" stroke-width="2"/>
  <text x="2180.0" y="1273.0" text-anchor="middle" fill="#333" font-size="10">14/2 125°C</text>
  <polyline points="340.0,1550.0 640.0,1550.0 640.0,1590.0" fill="none" stroke="#2c5aa0" stroke-width="2"/>
  <text x="490.0" y="1538.0" text-anchor="middle" fill="#333" font-size="10">10/3 125°C</text>
  <polyline points="900.0,1590.0 1100.0,1550.0" fill="none" stroke="#2c5aa0" stroke-width="2"/>
  <text x="1006.0" y="1570.0" text-anchor="start" fill="#333" font-size="10">10/3 125°C</text>
  <polyline points="1340.0,1550.0 1380.0,1550.0" fill="none" stroke="#2c5aa0" stroke-width="2"/>
  <polyline points="1380.0,1650.0 1380.0,1450.0" fill="none" stroke="#2c5aa0" stroke-width="2"/>
  <polyline points="1380.0,1450.0 1500.0,1450.0" fill="none" stroke="#2c5aa0" stroke-width="2"/>
  <text x="1440.0" y="1438.0" text-anchor="middle" fill="#333" font-size="10">12/3 125°C</text>
  <polyline points="1380.0,1540.0 1500.0,1540.0" fill="none" stroke="#2c5aa0" stroke-width="2"/>
  <text x="1440.0" y="1528.0" text-anchor="middle" fill="#333" font-size="10">12/3 125°C</text>
  <polyline points="1380.0,1650.0 1500.0,1650.0" fill="none" stroke="#2c5aa0" stroke-width="2"/>
  <text x="1440.0" y="1638.0" text-anchor="middle" fill="#333" font-size="10">12/3 125°C</text>
  <polyline points="1380.0,765.0 1220.0,765.0 1220.0,1460.0" fill="none" stroke="#1e8449" stroke-width="2"/>
  <text x="1300.0" y="753.0" text-anchor="middle" fill="#333" font-size="10">8 AWG 125°C</text>
  <rect x="120.0" y="180.0" width="220.0" height="120.0" fill="white" stroke="#c0392b" stroke-width="2"/>
  <text x="230.0" y="247.0" text-anchor="middle" fill="#111">200W SOLAR PANEL</text>
  <rect x="420.0" y="200.0" width="180.0" height="80.0" fill="white" stroke="#c0392b" stroke-width="2"/>
  <text x="510.0" y="240.0" text-anchor="middle" fill="#111">25A SOLAR INPUT</text>
  <text x="510.0" y="254.0" text-anchor="middle" fill="#111">PROTECTION</text>
  <rect x="680.0" y="180.0" width="220.0" height="120.0" fill="white" stroke="#c0392b" stroke-width="2"/>
  <text x="790.0" y="247.0" text-anchor="middle" fill="#111">DC-DC + MPPT</text>
  <rect x="980.0" y="200.0" width="200.0" height="80.0" fill="white" stroke="#c0392b" stroke-width="2"/>
  <text x="1080.0" y="240.0" text-anchor="middle" fill="#111">60A MAIN CHARGE</text>
  <text x="1080.0" y="254.0" text-anchor="middle" fill="#111">PROTECTION</text>
  <rect x="1260.0" y="200.0" width="200.0" height="80.0" fill="white" stroke="#c0392b" stroke-width="2"/>
  <text x="1360.0" y="240.0" text-anchor="middle" fill="#111">80A ALTERNATOR</text>
  <text x="1360.0" y="254.0" text-anchor="middle" fill="#111">PROTECTION</text>
  <rect x="1540.0" y="180.0" width="220.0" height="120.0" fill="white" stroke="#c0392b" stroke-width="2"/>
  <text x="1650.0" y="247.0" text-anchor="middle" fill="#111">CHASSIS BATTERY</text>
  <rect x="640.0" y="540.0" width="220.0" height="160.0" fill="white" stroke="#c0392b" stroke-width="2"/>
  <text x="750.0" y="620.0" text-anchor="middle" fill="#111">12V 200Ah LiFePO4</text>
  <text x="750.0" y="634.0" text-anchor="middle" fill="#111">BATTERY (UL1973)</text>
  <rect x="940.0" y="540.0" width="160.0" height="60.0" fill="white" stroke="#c0392b" stroke-width="2"/>
  <text x="1020.0" y="577.0" text-anchor="middle" fill="#111">200A BREAKER</text>
  <rect x="940.0" y="660.0" width="160.0" height="60.0" fill="white" stroke="#c0392b" stroke-width="2"/>
  <text x="1020.0" y="697.0" text-anchor="middle" fill="#111">300A SHUNT</text>
  <rect x="1140.0" y="660.0" width="180.0" height="60.0" fill="white" stroke="#c0392b" stroke-width="2"/>
  <text x="1230.0" y="697.0" text-anchor="middle" fill="#111">NEGATIVE BUS</text>
  <rect x="1380.0" y="660.0" width="180.0" height="50.0" fill="white" stroke="#1e8449" stroke-width="2"/>
  <text x="1470.0" y="692.0" text-anchor="middle" fill="#111">CHASSIS GROUND</text>
  <rect x="1380.0" y="740.0" width="180.0" height="50.0" fill="white" stroke="#1e8449" stroke-width="2"/>
  <text x="1470.0" y="772.0" text-anchor="middle" fill="#111">REAR OEM GROUND</text>
  <rect x="1640.0" y="510.0" width="220.0" height="140.0" fill="white" stroke="#c0392b" stroke-width="2"/>
  <text x="1750.0" y="580.0" text-anchor="middle" fill="#111">DC DISTRIBUTION</text>
  <text x="1750.0" y="594.0" text-anchor="middle" fill="#111">PANEL</text>
  <rect x="2200.0" y="160.0" width="280.0" height="50.0" fill="white" stroke="#c0392b" stroke-width="2"/>
  <text x="2340.0" y="192.0" text-anchor="middle" fill="#111">REFRIGERATOR (10A FUSE)</text>
  <rect x="2200.0" y="260.0" width="280.0" height="50.0" fill="white" stroke="#c0392b" stroke-width="2"/>
  <text x="2340.0" y="292.0" text-anchor="middle" fill="#111">DIESEL HEATER (15A FUSE)</text>
  <rect x="2200.0" y="360.0" width="280.0" height="50.0" fill="white" stroke="#c0392b" stroke-width="2"/>
  <text x="2340.0" y="392.0" text-anchor="middle" fill="#111">USB-C 100W (15A FUSE)</text>
  <rect x="2200.0" y="460.0" width="280.0" height="50.0" fill="white" stroke="#c0392b" stroke-width="2"/>
  <text x="2340.0" y="492.0" text-anchor="middle" fill="#111">USB-A 1 (10A FUSE)</text>
  <rect x="2200.0" y="560.0" width="280.0" height="50.0" fill="white" stroke="#c0392b" stroke-width="2"/>
  <text x="2340.0" y="592.0" text-anchor="middle" fill="#111">USB-A 2 (10A FUSE)</text>
  <rect x="2200.0" y="660.0" width="280.0" height="50.0" fill="white" stroke="#c0392b" stroke-width="2"/>
  <text x="2340.0" y="692.0" text-anchor="middle" fill="#111">12V POWER SOCKET 1 (15A FUSE)</text>
  <rect x="2200.0" y="760.0" width="280.0" height="50.0" fill="white" stroke="#c0392b" stroke-width="2"/>
  <text x="2340.0" y="792.0" text-anchor="middle" fill="#111">12V POWER SOCKET 2 (15A FUSE)</text>
  <rect x="2200.0" y="860.0" width="280.0" height="50.0" fill="white" stroke="#c0392b" stroke-width="2"/>
  <text x="2340.0" y="892.0" text-anchor="middle" fill="#111">READING LIGHTS (7.5A FUSE)</text>
  <rect x="2200.0" y="960.0" width="280.0" height="50.0" fill="white" stroke="#c0392b" stroke-width="2"/>
  <text x="2340.0" y="992.0" text-anchor="middle" fill="#111">CEILING PUCK LIGHTS (10A FUSE)</text>
  <rect x="2200.0" y="1060.0" width="280.0" height="50.0" fill="white" stroke="#c0392b" stroke-width="2"/>
  <text x="2340.0" y="1092.0" text-anchor="middle" fill="#111">WATER PUMP (15A FUSE)</text>
  <rect x="2200.0" y="1160.0" width="280.0" height="50.0" fill="white" stroke="#c0392b" stroke-width="2"/>
  <text x="2340.0" y="1192.0" text-anchor="middle" fill="#111">FAN 1 (7.5A FUSE)</text>
  <rect x="2200.0" y="1260.0" width="280.0" height="50.0" fill="white" stroke="#c0392b" stroke-width="2"/>
  <text x="2340.0" y="1292.0" text-anchor="middle" fill="#111">FAN 2 (7.5A FUSE)</text>
  <rect x="120.0" y="1500.0" width="220.0" height="100.0" fill="white" stroke="#2c5aa0" stroke-width="2"/>
  <text x="230.0" y="1557.0" text-anchor="middle" fill="#111">SHORE INLET 30A</text>
  <rect x="640.0" y="1480.0" width="260.0" height="220.0" fill="white" stroke="#2c5aa0" stroke-width="2"/>
  <text x="770.0" y="1576.0" text-anchor="middle" fill="#111">INVERTER + CHARGER</text>
  <text x="770.0" y="1590.0" text-anchor="middle" fill="#111">+ TRANSFER SWITCH</text>
  <text x="770.0" y="1604.0" text-anchor="middle" fill="#111">2000W PASS-THRU</text>
  <text x="770.0" y="1618.0" text-anchor="middle" fill="#111">UL 458</text>
  <rect x="1100.0" y="1460.0" width="240.0" height="180.0" fill="white" stroke="#2c5aa0" stroke-width="2"/>
  <text x="1220.0" y="1550.0" text-anchor="middle" fill="#111">AC DISTRIBUTION</text>
  <text x="1220.0" y="1564.0" text-anchor="middle" fill="#111">PANEL (UL LISTED)</text>
  <rect x="1500.0" y="1420.0" width="240.0" height="60.0" fill="white" stroke="#2c5aa0" stroke-width="2"/>
  <text x="1620.0" y="1457.0" text-anchor="middle" fill="#111">GFCI 1 (15A BREAKER)</text>
  <rect x="1500.0" y="1510.0" width="240.0" height="60.0" fill="white" stroke="#2c5aa0" stroke-width="2"/>
  <text x="1620.0" y="1547.0" text-anchor="middle" fill="#111">GFCI 2 (15A BREAKER)</text>
  <rect x="1500.0" y="1610.0" width="240.0" height="80.0" fill="white" stroke="#2c5aa0" stroke-width="2"/>
  <text x="1620.0" y="1650.0" text-anchor="middle" fill="#111">OPT. AIR CONDITIONER</text>
  <text x="1620.0" y="1664.0" text-anchor="middle" fill="#111">(20A BREAKER)</text>
</svg>
