999
Slate 2026 RV Electrical Schematic
0
SECTION
2
HEADER
9
$ACADVER
1
AC1009
9
$INSBASE
10
0.0
20
0.0
30
0.0
9
$EXTMIN
10
0.0
20
0.0
30
0.0
9
$EXTMAX
10
3000.0
20
2000.0
30
0.0
0
ENDSEC
0
SECTION
2
TABLES
0
TABLE
2
STYLE
70
1
0
STYLE
2
STANDARD
70
0
40
0.0
41
1.0
50
0.0
71
0
42
2.5
3
txt
4

0
ENDTAB
0
TABLE
2
LAYER
70
4
0
LAYER
2
ELEC-DC
70
0
62
1
6
CONTINUOUS
0
LAYER
2
ELEC-AC
70
0
62
5
6
CONTINUOUS
0
LAYER
2
ELEC-GND
70
0
62
3
6
CONTINUOUS
0
LAYER
2
TEXT
70
0
62
7
6
CONTINUOUS
0
ENDTAB
0
ENDSEC
0
SECTION
2
ENTITIES
0
LINE
8
ELEC-DC
10
120.000
20
1700.000
30
0.0
11
340.000
21
1700.000
31
0.0
0
LINE
8
ELEC-DC
10
340.000
20
1700.000
30
0.0
11
340.000
21
1820.000
31
0.0
0
LINE
8
ELEC-DC
10
340.000
20
1820.000
30
0.0
11
120.000
21
1820.000
31
0.0
0
LINE
8
ELEC-DC
10
120.000
20
1820.000
30
0.0
11
120.000
21
1700.000
31
0.0
0
TEXT
8
TEXT
10
178.000
20
1753.000
30
0.0
40
11.00
1
200W SOLAR PANEL
7
STANDARD
0
LINE
8
ELEC-DC
10
420.000
20
1720.000
30
0.0
11
600.000
21
1720.000
31
0.0
0
LINE
8
ELEC-DC
10
600.000
20
1720.000
30
0.0
11
600.000
21
1800.000
31
0.0
0
LINE
8
ELEC-DC
10
600.000
20
1800.000
30
0.0
11
420.000
21
1800.000
31
0.0
0
LINE
8
ELEC-DC
10
420.000
20
1800.000
30
0.0
11
420.000
21
1720.000
31
0.0
0
TEXT
8
TEXT
10
461.250
20
1760.000
30
0.0
40
11.00
1
25A SOLAR INPUT
7
STANDARD
0
TEXT
8
TEXT
10
477.500
20
1746.000
30
0.0
40
11.00
1
PROTECTION
7
STANDARD
0
LINE
8
ELEC-DC
10
680.000
20
1700.000
30
0.0
11
900.000
21
1700.000
31
0.0
0
LINE
8
ELEC-DC
10
900.000
20
1700.000
30
0.0
11
900.000
21
1820.000
31
0.0
0
LINE
8
ELEC-DC
10
900.000
20
1820.000
30
0.0
11
680.000
21
1820.000
31
0.0
0
LINE
8
ELEC-DC
10
680.000
20
1820.000
30
0.0
11
680.000
21
1700.000
31
0.0
0
TEXT
8
TEXT
10
751.000
20
1753.000
30
0.0
40
11.00
1
DC-DC + MPPT
7
STANDARD
0
LINE
8
ELEC-DC
10
980.000
20
1720.000
30
0.0
11
1180.000
21
1720.000
31
0.0
0
LINE
8
ELEC-DC
10
1180.000
20
1720.000
30
0.0
11
1180.000
21
1800.000
31
0.0
0
LINE
8
ELEC-DC
10
1180.000
20
1800.000
30
0.0
11
980.000
21
1800.000
31
0.0
0
LINE
8
ELEC-DC
10
980.000
20
1800.000
30
0.0
11
980.000
21
1720.000
31
0.0
0
TEXT
8
TEXT
10
1031.250
20
1760.000
30
0.0
40
11.00
1
60A MAIN CHARGE
7
STANDARD
0
TEXT
8
TEXT
10
1047.500
20
1746.000
30
0.0
40
11.00
1
PROTECTION
7
STANDARD
0
LINE
8
ELEC-DC
10
1260.000
20
1720.000
30
0.0
11
1460.000
21
1720.000
31
0.0
0
LINE
8
ELEC-DC
10
1460.000
20
1720.000
30
0.0
11
1460.000
21
1800.000
31
0.0
0
LINE
8
ELEC-DC
10
1460.000
20
1800.000
30
0.0
11
1260.000
21
1800.000
31
0.0
0
LINE
8
ELEC-DC
10
1260.000
20
1800.000
30
0.0
11
1260.000
21
1720.000
31
0.0
0
TEXT
8
TEXT
10
1314.500
20
1760.000
30
0.0
40
11.00
1
80A ALTERNATOR
7
STANDARD
0
TEXT
8
TEXT
10
1327.500
20
1746.000
30
0.0
40
11.00
1
PROTECTION
7
STANDARD
0
LINE
8
ELEC-DC
10
1540.000
20
1700.000
30
0.0
11
1760.000
21
1700.000
31
0.0
0
LINE
8
ELEC-DC
10
1760.000
20
1700.000
30
0.0
11
1760.000
21
1820.000
31
0.0
0
LINE
8
ELEC-DC
10
1760.000
20
1820.000
30
0.0
11
1540.000
21
1820.000
31
0.0
0
LINE
8
ELEC-DC
10
1540.000
20
1820.000
30
0.0
11
1540.000
21
1700.000
31
0.0
0
TEXT
8
TEXT
10
1601.250
20
1753.000
30
0.0
40
11.00
1
CHASSIS BATTERY
7
STANDARD
0
LINE
8
ELEC-DC
10
640.000
20
1300.000
30
0.0
11
860.000
21
1300.000
31
0.0
0
LINE
8
ELEC-DC
10
860.000
20
1300.000
30
0.0
11
860.000
21
1460.000
31
0.0
0
LINE
8
ELEC-DC
10
860.000
20
1460.000
30
0.0
11
640.000
21
1460.000
31
0.0
0
LINE
8
ELEC-DC
10
640.000
20
1460.000
30
0.0
11
640.000
21
1300.000
31
0.0
0
TEXT
8
TEXT
10
694.750
20
1380.000
30
0.0
40
11.00
1
12V 200Ah LiFePO4
7
STANDARD
0
TEXT
8
TEXT
10
698.000
20
1366.000
30
0.0
40
11.00
1
BATTERY (UL1973)
7
STANDARD
0
LINE
8
ELEC-DC
10
940.000
20
1400.000
30
0.0
11
1100.000
21
1400.000
31
0.0
0
LINE
8
ELEC-DC
10
1100.000
20
1400.000
30
0.0
11
1100.000
21
1460.000
31
0.0
0
LINE
8
ELEC-DC
10
1100.000
20
1460.000
30
0.0
11
940.000
21
1460.000
31
0.0
0
LINE
8
ELEC-DC
10
940.000
20
1460.000
30
0.0
11
940.000
21
1400.000
31
0.0
0
TEXT
8
TEXT
10
981.000
20
1423.000
30
0.0
40
11.00
1
200A BREAKER
7
STANDARD
0
LINE
8
ELEC-DC
10
940.000
20
1280.000
30
0.0
11
1100.000
21
1280.000
31
0.0
0
LINE
8
ELEC-DC
10
1100.000
20
1280.000
30
0.0
11
1100.000
21
1340.000
31
0.0
0
LINE
8
ELEC-DC
10
1100.000
20
1340.000
30
0.0
11
940.000
21
1340.000
31
0.0
0
LINE
8
ELEC-DC
10
940.000
20
1340.000
30
0.0
11
940.000
21
1280.000
31
0.0
0
TEXT
8
TEXT
10
987.500
20
1303.000
30
0.0
40
11.00
1
300A SHUNT
7
STANDARD
0
LINE
8
ELEC-DC
10
1140.000
20
1280.000
30
0.0
11
1320.000
21
1280.000
31
0.0
0
LINE
8
ELEC-DC
10
1320.000
20
1280.000
30
0.0
11
1320.000
21
1340.000
31
0.0
0
LINE
8
ELEC-DC
10
1320.000
20
1340.000
30
0.0
11
1140.000
21
1340.000
31
0.0
0
LINE
8
ELEC-DC
10
1140.000
20
1340.000
30
0.0
11
1140.000
21
1280.000
31
0.0
0
TEXT
8
TEXT
10
1191.000
20
1303.000
30
0.0
40
11.00
1
NEGATIVE BUS
7
STANDARD
0
LINE
8
ELEC-GND
10
1380.000
20
1290.000
30
0.0
11
1560.000
21
1290.000
31
0.0
0
LINE
8
ELEC-GND
10
1560.000
20
1290.000
30
0.0
11
1560.000
21
1340.000
31
0.0
0
LINE
8
ELEC-GND
10
1560.000
20
1340.000
30
0.0
11
1380.000
21
1340.000
31
0.0
0
LINE
8
ELEC-GND
10
1380.000
20
1340.000
30
0.0
11
1380.000
21
1290.000
31
0.0
0
TEXT
8
TEXT
10
1424.500
20
1308.000
30
0.0
40
11.00
1
CHASSIS GROUND
7
STANDARD
0
LINE
8
ELEC-GND
10
1380.000
20
1210.000
30
0.0
11
1560.000
21
1210.000
31
0.0
0
LINE
8
ELEC-GND
10
1560.000
20
1210.000
30
0.0
11
1560.000
21
1260.000
31
0.0
0
LINE
8
ELEC-GND
10
1560.000
20
1260.000
30
0.0
11
1380.000
21
1260.000
31
0.0
0
LINE
8
ELEC-GND
10
1380.000
20
1260.000
30
0.0
11
1380.000
21
1210.000
31
0.0
0
TEXT
8
TEXT
10
1421.250
20
1228.000
30
0.0
40
11.00
1
REAR OEM GROUND
7
STANDARD
0
LINE
8
ELEC-DC
10
1640.000
20
1350.000
30
0.0
11
1860.000
21
1350.000
31
0.0
0
LINE
8
ELEC-DC
10
1860.000
20
1350.000
30
0.0
11
1860.000
21
1490.000
31
0.0
0
LINE
8
ELEC-DC
10
1860.000
20
1490.000
30
0.0
11
1640.000
21
1490.000
31
0.0
0
LINE
8
ELEC-DC
10
1640.000
20
1490.000
30
0.0
11
1640.000
21
1350.000
31
0.0
0
TEXT
8
TEXT
10
1701.250
20
1420.000
30
0.0
40
11.00
1
DC DISTRIBUTION
7
STANDARD
0
TEXT
8
TEXT
10
1733.750
20
1406.000
30
0.0
40
11.00
1
PANEL
7
STANDARD
0
LINE
8
ELEC-DC
10
2200.000
20
1790.000
30
0.0
11
2480.000
21
1790.000
31
0.0
0
LINE
8
ELEC-DC
10
2480.000
20
1790.000
30
0.0
11
2480.000
21
1840.000
31
0.0
0
LINE
8
ELEC-DC
10
2480.000
20
1840.000
30
0.0
11
2200.000
21
1840.000
31
0.0
0
LINE
8
ELEC-DC
10
2200.000
20
1840.000
30
0.0
11
2200.000
21
1790.000
31
0.0
0
TEXT
8
TEXT
10
2265.250
20
1808.000
30
0.0
40
11.00
1
REFRIGERATOR (10A FUSE)
7
STANDARD
0
LINE
8
ELEC-DC
10
2200.000
20
1690.000
30
0.0
11
2480.000
21
1690.000
31
0.0
0
LINE
8
ELEC-DC
10
2480.000
20
1690.000
30
0.0
11
2480.000
21
1740.000
31
0.0
0
LINE
8
ELEC-DC
10
2480.000
20
1740.000
30
0.0
11
2200.000
21
1740.000
31
0.0
0
LINE
8
ELEC-DC
10
2200.000
20
1740.000
30
0.0
11
2200.000
21
1690.000
31
0.0
0
TEXT
8
TEXT
10
2262.000
20
1708.000
30
0.0
40
11.00
1
DIESEL HEATER (15A FUSE)
7
STANDARD
0
LINE
8
ELEC-DC
10
2200.000
20
1590.000
30
0.0
11
2480.000
21
1590.000
31
0.0
0
LINE
8
ELEC-DC
10
2480.000
20
1590.000
30
0.0
11
2480.000
21
1640.000
31
0.0
0
LINE
8
ELEC-DC
10
2480.000
20
1640.000
30
0.0
11
2200.000
21
1640.000
31
0.0
0
LINE
8
ELEC-DC
10
2200.000
20
1640.000
30
0.0
11
2200.000
21
1590.000
31
0.0
0
TEXT
8
TEXT
10
2271.750
20
1608.000
30
0.0
40
11.00
1
USB-C 100W (15A FUSE)
7
STANDARD
0
LINE
8
ELEC-DC
10
2200.000
20
1490.000
30
0.0
11
2480.000
21
1490.000
31
0.0
0
LINE
8
ELEC-DC
10
2480.000
20
1490.000
30
0.0
11
2480.000
21
1540.000
31
0.0
0
LINE
8
ELEC-DC
10
2480.000
20
1540.000
30
0.0
11
2200.000
21
1540.000
31
0.0
0
LINE
8
ELEC-DC
10
2200.000
20
1540.000
30
0.0
11
2200.000
21
1490.000
31
0.0
0
TEXT
8
TEXT
10
2281.500
20
1508.000
30
0.0
40
11.00
1
USB-A 1 (10A FUSE)
7
STANDARD
0
LINE
8
ELEC-DC
10
2200.000
20
1390.000
30
0.0
11
2480.000
21
1390.000
31
0.0
0
LINE
8
ELEC-DC
10
2480.000
20
1390.000
30
0.0
11
2480.000
21
1440.000
31
0.0
0
LINE
8
ELEC-DC
10
2480.000
20
1440.000
30
0.0
11
2200.000
21
1440.000
31
0.0
0
LINE
8
ELEC-DC
10
2200.000
20
1440.000
30
0.0
11
2200.000
21
1390.000
31
0.0
0
TEXT
8
TEXT
10
2281.500
20
1408.000
30
0.0
40
11.00
1
USB-A 2 (10A FUSE)
7
STANDARD
0
LINE
8
ELEC-DC
10
2200.000
20
1290.000
30
0.0
11
2480.000
21
1290.000
31
0.0
0
LINE
8
ELEC-DC
10
2480.000
20
1290.000
30
0.0
11
2480.000
21
1340.000
31
0.0
0
LINE
8
ELEC-DC
10
2480.000
20
1340.000
30
0.0
11
2200.000
21
1340.000
31
0.0
0
LINE
8
ELEC-DC
10
2200.000
20
1340.000
30
0.0
11
2200.000
21
1290.000
31
0.0
0
TEXT
8
TEXT
10
2245.750
20
1308.000
30
0.0
40
11.00
1
12V POWER SOCKET 1 (15A FUSE)
7
STANDARD
0
LINE
8
ELEC-DC
10
2200.000
20
1190.000
30
0.0
11
2480.000
21
1190.000
31
0.0
0
LINE
8
ELEC-DC
10
2480.000
20
1190.000
30
0.0
11
2480.000
21
1240.000
31
0.0
0
LINE
8
ELEC-DC
10
2480.000
20
1240.000
30
0.0
11
2200.000
21
1240.000
31
0.0
0
LINE
8
ELEC-DC
10
2200.000
20
1240.000
30
0.0
11
2200.000
21
1190.000
31
0.0
0
TEXT
8
TEXT
10
2245.750
20
1208.000
30
0.0
40
11.00
1
12V POWER SOCKET 2 (15A FUSE)
7
STANDARD
0
LINE
8
ELEC-DC
10
2200.000
20
1090.000
30
0.0
11
2480.000
21
1090.000
31
0.0
0
LINE
8
ELEC-DC
10
2480.000
20
1090.000
30
0.0
11
2480.000
21
1140.000
31
0.0
0
LINE
8
ELEC-DC
10
2480.000
20
1140.000
30
0.0
11
2200.000
21
1140.000
31
0.0
0
LINE
8
ELEC-DC
10
2200.000
20
1140.000
30
0.0
11
2200.000
21
1090.000
31
0.0
0
TEXT
8
TEXT
10
2255.500
20
1108.000
30
0.0
40
11.00
1
READING LIGHTS (7.5A FUSE)
7
STANDARD
0
LINE
8
ELEC-DC
10
2200.000
20
990.000
30
0.0
11
2480.000
21
990.000
31
0.0
0
LINE
8
ELEC-DC
10
2480.000
20
990.000
30
0.0
11
2480.000
21
1040.000
31
0.0
0
LINE
8
ELEC-DC
10
2480.000
20
1040.000
30
0.0
11
2200.000
21
1040.000
31
0.0
0
LINE
8
ELEC-DC
10
2200.000
20
1040.000
30
0.0
11
2200.000
21
990.000
31
0.0
0
TEXT
8
TEXT
10
2242.500
20
1008.000
30
0.0
40
11.00
1
CEILING PUCK LIGHTS (10A FUSE)
7
STANDARD
0
LINE
8
ELEC-DC
10
2200.000
20
890.000
30
0.0
11
2480.000
21
890.000
31
0.0
0
LINE
8
ELEC-DC
10
2480.000
20
890.000
30
0.0
11
2480.000
21
940.000
31
0.0
0
LINE
8
ELEC-DC
10
2480.000
20
940.000
30
0.0
11
2200.000
21
940.000
31
0.0
0
LINE
8
ELEC-DC
10
2200.000
20
940.000
30
0.0
11
2200.000
21
890.000
31
0.0
0
TEXT
8
TEXT
10
2271.750
20
908.000
30
0.0
40
11.00
1
WATER PUMP (15A FUSE)
7
STANDARD
0
LINE
8
ELEC-DC
10
2200.000
20
790.000
30
0.0
11
2480.000
21
790.000
31
0.0
0
LINE
8
ELEC-DC
10
2480.000
20
790.000
30
0.0
11
2480.000
21
840.000
31
0.0
0
LINE
8
ELEC-DC
10
2480.000
20
840.000
30
0.0
11
2200.000
21
840.000
31
0.0
0
LINE
8
ELEC-DC
10
2200.000
20
840.000
30
0.0
11
2200.000
21
790.000
31
0.0
0
TEXT
8
TEXT
10
2284.750
20
808.000
30
0.0
40
11.00
1
FAN 1 (7.5A FUSE)
7
STANDARD
0
LINE
8
ELEC-DC
10
2200.000
20
690.000
30
0.0
11
2480.000
21
690.000
31
0.0
0
LINE
8
ELEC-DC
10
2480.000
20
690.000
30
0.0
11
2480.000
21
740.000
31
0.0
0
LINE
8
ELEC-DC
10
2480.000
20
740.000
30
0.0
11
2200.000
21
740.000
31
0.0
0
LINE
8
ELEC-DC
10
2200.000
20
740.000
30
0.0
11
2200.000
21
690.000
31
0.0
0
TEXT
8
TEXT
10
2284.750
20
708.000
30
0.0
40
11.00
1
FAN 2 (7.5A FUSE)
7
STANDARD
0
LINE
8
ELEC-AC
10
120.000
20
400.000
30
0.0
11
340.000
21
400.000
31
0.0
0
LINE
8
ELEC-AC
10
340.000
20
400.000
30
0.0
11
340.000
21
500.000
31
0.0
0
LINE
8
ELEC-AC
10
340.000
20
500.000
30
0.0
11
120.000
21
500.000
31
0.0
0
LINE
8
ELEC-AC
10
120.000
20
500.000
30
0.0
11
120.000
21
400.000
31
0.0
0
TEXT
8
TEXT
10
181.250
20
443.000
30
0.0
40
11.00
1
SHORE INLET 30A
7
STANDARD
0
LINE
8
ELEC-AC
10
640.000
20
300.000
30
0.0
11
900.000
21
300.000
31
0.0
0
LINE
8
ELEC-AC
10
900.000
20
300.000
30
0.0
11
900.000
21
520.000
31
0.0
0
LINE
8
ELEC-AC
10
900.000
20
520.000
30
0.0
11
640.000
21
520.000
31
0.0
0
LINE
8
ELEC-AC
10
640.000
20
520.000
30
0.0
11
640.000
21
300.000
31
0.0
0
TEXT
8
TEXT
10
711.500
20
424.000
30
0.0
40
11.00
1
INVERTER + CHARGER
7
STANDARD
0
TEXT
8
TEXT
10
714.750
20
410.000
30
0.0
40
11.00
1
+ TRANSFER SWITCH
7
STANDARD
0
TEXT
8
TEXT
10
721.250
20
396.000
30
0.0
40
11.00
1
2000W PASS-THRU
7
STANDARD
0
TEXT
8
TEXT
10
750.500
20
382.000
30
0.0
40
11.00
1
UL 458
7
STANDARD
0
LINE
8
ELEC-AC
10
1100.000
20
360.000
30
0.0
11
1340.000
21
360.000
31
0.0
0
LINE
8
ELEC-AC
10
1340.000
20
360.000
30
0.0
11
1340.000
21
540.000
31
0.0
0
LINE
8
ELEC-AC
10
1340.000
20
540.000
30
0.0
11
1100.000
21
540.000
31
0.0
0
LINE
8
ELEC-AC
10
1100.000
20
540.000
30
0.0
11
1100.000
21
360.000
31
0.0
0
TEXT
8
TEXT
10
1171.250
20
450.000
30
0.0
40
11.00
1
AC DISTRIBUTION
7
STANDARD
0
TEXT
8
TEXT
10
1164.750
20
436.000
30
0.0
40
11.00
1
PANEL (UL LISTED)
7
STANDARD
0
LINE
8
ELEC-AC
10
1500.000
20
520.000
30
0.0
11
1740.000
21
520.000
31
0.0
0
LINE
8
ELEC-AC
10
1740.000
20
520.000
30
0.0
11
1740.000
21
580.000
31
0.0
0
LINE
8
ELEC-AC
10
1740.000
20
580.000
30
0.0
11
1500.000
21
580.000
31
0.0
0
LINE
8
ELEC-AC
10
1500.000
20
580.000
30
0.0
11
1500.000
21
520.000
31
0.0
0
TEXT
8
TEXT
10
1555.000
20
543.000
30
0.0
40
11.00
1
GFCI 1 (15A BREAKER)
7
STANDARD
0
LINE
8
ELEC-AC
10
1500.000
20
430.000
30
0.0
11
1740.000
21
430.000
31
0.0
0
LINE
8
ELEC-AC
10
1740.000
20
430.000
30
0.0
11
1740.000
21
490.000
31
0.0
0
LINE
8
ELEC-AC
10
1740.000
20
490.000
30
0.0
11
1500.000
21
490.000
31
0.0
0
LINE
8
ELEC-AC
10
1500.000
20
490.000
30
0.0
11
1500.000
21
430.000
31
0.0
0
TEXT
8
TEXT
10
1555.000
20
453.000
30
0.0
40
11.00
1
GFCI 2 (15A BREAKER)
7
STANDARD
0
LINE
8
ELEC-AC
10
1500.000
20
310.000
30
0.0
11
1740.000
21
310.000
31
0.0
0
LINE
8
ELEC-AC
10
1740.000
20
310.000
30
0.0
11
1740.000
21
390.000
31
0.0
0
LINE
8
ELEC-AC
10
1740.000
20
390.000
30
0.0
11
1500.000
21
390.000
31
0.0
0
LINE
8
ELEC-AC
10
1500.000
20
390.000
30
0.0
11
1500.000
21
310.000
31
0.0
0
TEXT
8
TEXT
10
1555.000
20
350.000
30
0.0
40
11.00
1
OPT. AIR CONDITIONER
7
STANDARD
0
TEXT
8
TEXT
10
1577.750
20
336.000
30
0.0
40
11.00
1
(20A BREAKER)
7
STANDARD
0
LINE
8
ELEC-DC
10
340.000
20
1760.000
30
0.0
11
420.000
21
1760.000
31
0.0
0
TEXT
8
TEXT
10
365.000
20
1766.000
30
0.0
40
9.00
1
6 AWG
7
STANDARD
0
LINE
8
ELEC-DC
10
600.000
20
1760.000
30
0.0
11
680.000
21
1760.000
31
0.0
0
TEXT
8
TEXT
10
625.000
20
1766.000
30
0.0
40
9.00
1
6 AWG
7
STANDARD
0
LINE
8
ELEC-DC
10
900.000
20
1760.000
30
0.0
11
980.000
21
1760.000
31
0.0
0
TEXT
8
TEXT
10
925.000
20
1766.000
30
0.0
40
9.00
1
4 AWG
7
STANDARD
0
LINE
8
ELEC-DC
10
1080.000
20
1720.000
30
0.0
11
1080.000
21
1480.000
31
0.0
0
LINE
8
ELEC-DC
10
1080.000
20
1480.000
30
0.0
11
820.000
21
1480.000
31
0.0
0
LINE
8
ELEC-DC
10
820.000
20
1480.000
30
0.0
11
820.000
21
1460.000
31
0.0
0
TEXT
8
TEXT
10
1086.000
20
1595.000
30
0.0
40
9.00
1
4 AWG
7
STANDARD
0
LINE
8
ELEC-DC
10
1540.000
20
1760.000
30
0.0
11
1460.000
21
1760.000
31
0.0
0
TEXT
8
TEXT
10
1485.000
20
1766.000
30
0.0
40
9.00
1
4 AWG
7
STANDARD
0
LINE
8
ELEC-DC
10
1360.000
20
1800.000
30
0.0
11
1360.000
21
1870.000
31
0.0
0
LINE
8
ELEC-DC
10
1360.000
20
1870.000
30
0.0
11
790.000
21
1870.000
31
0.0
0
LINE
8
ELEC-DC
10
790.000
20
1870.000
30
0.0
11
790.000
21
1820.000
31
0.0
0
TEXT
8
TEXT
10
1366.000
20
1830.000
30
0.0
40
9.00
1
4 AWG
7
STANDARD
0
LINE
8
ELEC-DC
10
750.000
20
1460.000
30
0.0
11
750.000
21
1540.000
31
0.0
0
LINE
8
ELEC-DC
10
750.000
20
1540.000
30
0.0
11
1020.000
21
1540.000
31
0.0
0
LINE
8
ELEC-DC
10
1020.000
20
1540.000
30
0.0
11
1020.000
21
1460.000
31
0.0
0
TEXT
8
TEXT
10
756.000
20
1495.000
30
0.0
40
9.00
1
2/0 AWG
7
STANDARD
0
LINE
8
ELEC-DC
10
1100.000
20
1430.000
30
0.0
11
1540.000
21
1430.000
31
0.0
0
LINE
8
ELEC-DC
10
1540.000
20
1430.000
30
0.0
11
1540.000
21
1430.000
31
0.0
0
TEXT
8
TEXT
10
1299.000
20
1436.000
30
0.0
40
9.00
1
2/0 AWG
7
STANDARD
0
LINE
8
ELEC-DC
10
1540.000
20
1430.000
30
0.0
11
1640.000
21
1430.000
31
0.0
0
LINE
8
ELEC-DC
10
1640.000
20
1430.000
30
0.0
11
1640.000
21
1420.000
31
0.0
0
TEXT
8
TEXT
10
1569.000
20
1436.000
30
0.0
40
9.00
1
2/0 AWG
7
STANDARD
0
LINE
8
ELEC-DC
10
1540.000
20
1430.000
30
0.0
11
1540.000
21
560.000
31
0.0
0
LINE
8
ELEC-DC
10
1540.000
20
560.000
30
0.0
11
810.000
21
560.000
31
0.0
0
LINE
8
ELEC-DC
10
810.000
20
560.000
30
0.0
11
810.000
21
520.000
31
0.0
0
TEXT
8
TEXT
10
1546.000
20
990.000
30
0.0
40
9.00
1
2/0 AWG
7
STANDARD
0
LINE
8
ELEC-DC
10
750.000
20
1300.000
30
0.0
11
750.000
21
1240.000
31
0.0
0
LINE
8
ELEC-DC
10
750.000
20
1240.000
30
0.0
11
1020.000
21
1240.000
31
0.0
0
LINE
8
ELEC-DC
10
1020.000
20
1240.000
30
0.0
11
1020.000
21
1280.000
31
0.0
0
TEXT
8
TEXT
10
756.000
20
1265.000
30
0.0
40
9.00
1
2/0 AWG
7
STANDARD
0
LINE
8
ELEC-DC
10
1100.000
20
1310.000
30
0.0
11
1140.000
21
1310.000
31
0.0
0
LINE
8
ELEC-GND
10
1320.000
20
1310.000
30
0.0
11
1380.000
21
1315.000
31
0.0
0
TEXT
8
TEXT
10
1356.000
20
1307.500
30
0.0
40
9.00
1
4 AWG
7
STANDARD
0
LINE
8
ELEC-GND
10
1470.000
20
1290.000
30
0.0
11
1470.000
21
1260.000
31
0.0
0
LINE
8
ELEC-GND
10
1470.000
20
1260.000
30
0.0
11
1470.000
21
1260.000
31
0.0
0
TEXT
8
TEXT
10
1476.000
20
1270.000
30
0.0
40
9.00
1
8 AWG
7
STANDARD
0
LINE
8
ELEC-DC
10
1230.000
20
1280.000
30
0.0
11
1230.000
21
580.000
31
0.0
0
LINE
8
ELEC-DC
10
1230.000
20
580.000
30
0.0
11
730.000
21
580.000
31
0.0
0
LINE
8
ELEC-DC
10
730.000
20
580.000
30
0.0
11
730.000
21
520.000
31
0.0
0
TEXT
8
TEXT
10
1236.000
20
925.000
30
0.0
40
9.00
1
2/0 AWG
7
STANDARD
0
LINE
8
ELEC-DC
10
1860.000
20
1420.000
30
0.0
11
2160.000
21
1420.000
31
0.0
0
TEXT
8
TEXT
10
1989.000
20
1426.000
30
0.0
40
9.00
1
2/0 AWG
7
STANDARD
0
LINE
8
ELEC-DC
10
2160.000
20
715.000
30
0.0
11
2160.000
21
1815.000
31
0.0
0
LINE
8
ELEC-DC
10
2160.000
20
1815.000
30
0.0
11
2200.000
21
1815.000
31
0.0
0
TEXT
8
TEXT
10
2165.000
20
1821.000
30
0.0
40
9.00
1
8 AWG
7
STANDARD
0
LINE
8
ELEC-DC
10
2160.000
20
1715.000
30
0.0
11
2200.000
21
1715.000
31
0.0
0
TEXT
8
TEXT
10
2141.000
20
1721.000
30
0.0
40
9.00
1
SUPPLIED WIRE
7
STANDARD
0
LINE
8
ELEC-DC
10
2160.000
20
1615.000
30
0.0
11
2200.000
21
1615.000
31
0.0
0
TEXT
8
TEXT
10
2168.000
20
1621.000
30
0.0
40
9.00
1
12/2
7
STANDARD
0
LINE
8
ELEC-DC
10
2160.000
20
1515.000
30
0.0
11
2200.000
21
1515.000
31
0.0
0
TEXT
8
TEXT
10
2168.000
20
1521.000
30
0.0
40
9.00
1
14/2
7
STANDARD
0
LINE
8
ELEC-DC
10
2160.000
20
1415.000
30
0.0
11
2200.000
21
1415.000
31
0.0
0
TEXT
8
TEXT
10
2168.000
20
1421.000
30
0.0
40
9.00
1
14/2
7
STANDARD
0
LINE
8
ELEC-DC
10
2160.000
20
1315.000
30
0.0
11
2200.000
21
1315.000
31
0.0
0
TEXT
8
TEXT
10
2168.000
20
1321.000
30
0.0
40
9.00
1
12/2
7
STANDARD
0
LINE
8
ELEC-DC
10
2160.000
20
1215.000
30
0.0
11
2200.000
21
1215.000
31
0.0
0
TEXT
8
TEXT
10
2168.000
20
1221.000
30
0.0
40
9.00
1
12/2
7
STANDARD
0
LINE
8
ELEC-DC
10
2160.000
20
1115.000
30
0.0
11
2200.000
21
1115.000
31
0.0
0
TEXT
8
TEXT
10
2168.000
20
1121.000
30
0.0
40
9.00
1
14/2
7
STANDARD
0
LINE
8
ELEC-DC
10
2160.000
20
1015.000
30
0.0
11
2200.000
21
1015.000
31
0.0
0
TEXT
8
TEXT
10
2168.000
20
1021.000
30
0.0
40
9.00
1
14/2
7
STANDARD
0
LINE
8
ELEC-DC
10
2160.000
20
915.000
30
0.0
11
2200.000
21
915.000
31
0.0
0
TEXT
8
TEXT
10
2168.000
20
921.000
30
0.0
40
9.00
1
12/2
7
STANDARD
0
LINE
8
ELEC-DC
10
2160.000
20
815.000
30
0.0
11
2200.000
21
815.000
31
0.0
0
TEXT
8
TEXT
10
2168.000
20
821.000
30
0.0
40
9.00
1
14/2
7
STANDARD
0
LINE
8
ELEC-DC
10
2160.000
20
715.000
30
0.0
11
2200.000
21
715.000
31
0.0
0
TEXT
8
TEXT
10
2168.000
20
721.000
30
0.0
40
9.00
1
14/2
7
STANDARD
0
LINE
8
ELEC-AC
10
340.000
20
450.000
30
0.0
11
640.000
21
450.000
31
0.0
0
LINE
8
ELEC-AC
10
640.000
20
450.000
30
0.0
11
640.000
21
410.000
31
0.0
0
TEXT
8
TEXT
10
478.000
20
456.000
30
0.0
40
9.00
1
10/3
7
STANDARD
0
LINE
8
ELEC-AC
10
900.000
20
410.000
30
0.0
11
1100.000
21
450.000
31
0.0
0
TEXT
8
TEXT
10
1006.000
20
425.000
30
0.0
40
9.00
1
10/3
7
STANDARD
0
LINE
8
ELEC-AC
10
1340.000
20
450.000
30
0.0
11
1380.000
21
450.000
31
0.0
0
LINE
8
ELEC-AC
10
1380.000
20
350.000
30
0.0
11
1380.000
21
550.000
31
0.0
0
LINE
8
ELEC-AC
10
1380.000
20
550.000
30
0.0
11
1500.000
21
550.000
31
0.0
0
TEXT
8
TEXT
10
1428.000
20
556.000
30
0.0
40
9.00
1
12/3
7
STANDARD
0
LINE
8
ELEC-AC
10
1380.000
20
460.000
30
0.0
11
1500.000
21
460.000
31
0.0
0
TEXT
8
TEXT
10
1428.000
20
466.000
30
0.0
40
9.00
1
12/3
7
STANDARD
0
LINE
8
ELEC-AC
10
1380.000
20
350.000
30
0.0
11
1500.000
21
350.000
31
0.0
0
TEXT
8
TEXT
10
1428.000
20
356.000
30
0.0
40
9.00
1
12/3
7
STANDARD
0
LINE
8
ELEC-GND
10
1380.000
20
1235.000
30
0.0
11
1220.000
21
1235.000
31
0.0
0
LINE
8
ELEC-GND
10
1220.000
20
1235.000
30
0.0
11
1220.000
21
540.000
31
0.0
0
TEXT
8
TEXT
10
1285.000
20
1241.000
30
0.0
40
9.00
1
8 AWG
7
STANDARD
0
TEXT
8
TEXT
10
120.000
20
1920.000
30
0.0
40
22.00
1
SLATE 2026 RV - ELECTRICAL ONE-LINE SCHEMATIC
7
STANDARD
0
TEXT
8
TEXT
10
120.000
20
1890.000
30
0.0
40
11.00
1
One-line schematic. Not a physical installation layout.
7
STANDARD
0
TEXT
8
TEXT
10
120.000
20
1870.000
30
0.0
40
11.00
1
Layers: ELEC-DC (red), ELEC-AC (blue), ELEC-GND (green), TEXT.
7
STANDARD
0
ENDSEC
0
EOF
