<?xml version="1.0" encoding="UTF-8"?>
<svg xmlns="http://www.w3.org/2000/svg" viewBox="0 0 2560 2000" font-family="Arial, Helvetica, sans-serif" font-size="11" stroke-linecap="square">
  <rect width="100%" height="100%" fill="white"/>
  <text x="120" y="40.0" font-size="22" font-weight="bold" fill="#111">SLATE 2026 RV &#8212; CHARGING SYSTEM (PHASE 1 LOCK)</text>
  <text x="120" y="85.0" font-size="12" fill="#333">One-line schematic. Not a physical installation layout.</text>
  <text x="120" y="110.0" font-size="12" fill="#333">Layers: ELEC-DC (red), ELEC-AC (blue), ELEC-GND (green), TEXT.</text>
  <polyline points="340.0,240.0 440.0,240.0" fill="none" stroke="#c0392b" stroke-width="2"/>
  <text x="390.0" y="228.0" text-anchor="middle" fill="#333" font-size="10">6 AWG 125°C</text>
  <polyline points="620.0,240.0 720.0,240.0" fill="none" stroke="#c0392b" stroke-width="2"/>
  <text x="670.0" y="228.0" text-anchor="middle" fill="#333" font-size="10">6 AWG 125°C</text>
  <polyline points="1640.0,240.0 1540.0,240.0" fill="none" stroke="#c0392b" stroke-width="2"/>
  <text x="1590.0" y="228.0" text-anchor="middle" fill="#333" font-size="10">4 AWG 125°C</text>
  <polyline points="1450.0,200.0 1450.0,150.0 840.0,150.0 840.0,180.0" fill="none" stroke="#c0392b" stroke-width="2"/>
  <text x="1458.0" y="175.0" text-anchor="start" fill="#333" font-size="10">4 AWG 125°C</text>
  <polyline points="960.0,240.0 1060.0,240.0" fill="none" stroke="#c0392b" stroke-width="2"/>
  <text x="1010.0" y="228.0" text-anchor="middle" fill="#333" font-size="10">4 AWG 125°C</text>
  <polyline points="1160.0,280.0 1160.0,960.0 950.0,960.0" fill="none" stroke="#c0392b" stroke-width="2"/>
  <text x="1168.0" y="620.0" text-anchor="start" fill="#333" font-size="10">4 AWG 125°C</text>
  <polyline points="720.0,300.0 640.0,300.0 640.0,960.0 730.0,960.0" fill="none" stroke="#c0392b" stroke-width="2"/>
  <polyline points="900.0,620.0 900.0,780.0" fill="none" stroke="#c0392b" stroke-width="2"/>
  <text x="908.0" y="700.0" text-anchor="start" fill="#333" font-size="10">2/0 AWG 125°C</text>
  <polyline points="780.0,620.0 780.0,780.0" fill="none" stroke="#c0392b" stroke-width="2"/>
  <text x="788.0" y="700.0" text-anchor="start" fill="#333" font-size="10">2/0 AWG 125°C</text>
  <polyline points="900.0,860.0 900.0,940.0" fill="none" stroke="#c0392b" stroke-width="2"/>
  <text x="908.0" y="900.0" text-anchor="start" fill="#333" font-size="10">2/0 AWG 125°C</text>
  <polyline points="780.0,840.0 780.0,940.0" fill="none" stroke="#c0392b" stroke-width="2"/>
  <text x="788.0" y="890.0" text-anchor="start" fill="#333" font-size="10">2/0 AWG 125°C</text>
  <polyline points="780.0,980.0 780.0,1060.0" fill="none" stroke="#1e8449" stroke-width="2"/>
  <text x="788.0" y="1020.0" text-anchor="start" fill="#333" font-size="10">2/0 AWG 125°C</text>
  <rect x="120.0" y="180.0" width="220.0" height="120.0" fill="white" stroke="#c0392b" stroke-width="2"/>
  <text x="230.0" y="247.0" text-anchor="middle" fill="#111">200W SOLAR PANEL</text>
  <rect x="440.0" y="200.0" width="180.0" height="80.0" fill="white" stroke="#c0392b" stroke-width="2"/>
  <text x="530.0" y="247.0" text-anchor="middle" fill="#111">25A SOLAR BREAKER</text>
  <rect x="720.0" y="180.0" width="240.0" height="120.0" fill="white" stroke="#c0392b" stroke-width="2"/>
  <text x="840.0" y="240.0" text-anchor="middle" fill="#111">DC-DC + MPPT</text>
  <text x="840.0" y="254.0" text-anchor="middle" fill="#111">(Solar + Alt Inputs)</text>
  <rect x="1060.0" y="200.0" width="200.0" height="80.0" fill="white" stroke="#c0392b" stroke-width="2"/>
  <text x="1160.0" y="247.0" text-anchor="middle" fill="#111">60A CHARGE BREAKER</text>
  <rect x="1360.0" y="200.0" width="180.0" height="80.0" fill="white" stroke="#c0392b" stroke-width="2"/>
  <text x="1450.0" y="247.0" text-anchor="middle" fill="#111">80A ALT BREAKER</text>
  <rect x="1640.0" y="180.0" width="220.0" height="120.0" fill="white" stroke="#c0392b" stroke-width="2"/>
  <text x="1750.0" y="247.0" text-anchor="middle" fill="#111">CHASSIS BATTERY</text>
  <rect x="730.0" y="540.0" width="220.0" height="160.0" fill="white" stroke="#c0392b" stroke-width="2"/>
  <text x="840.0" y="620.0" text-anchor="middle" fill="#111">12V 200Ah LiFePO4</text>
  <text x="840.0" y="634.0" text-anchor="middle" fill="#111">BATTERY (UL1973)</text>
  <rect x="800.0" y="780.0" width="200.0" height="80.0" fill="white" stroke="#c0392b" stroke-width="2"/>
  <text x="900.0" y="827.0" text-anchor="middle" fill="#111">200A MAIN BREAKER</text>
  <rect x="700.0" y="780.0" width="160.0" height="60.0" fill="white" stroke="#c0392b" stroke-width="2"/>
  <text x="780.0" y="817.0" text-anchor="middle" fill="#111">300A SHUNT</text>
  <rect x="850.0" y="940.0" width="100.0" height="40.0" fill="white" stroke="#c0392b" stroke-width="2"/>
  <text x="900.0" y="967.0" text-anchor="middle" fill="#111">POSITIVE BUS</text>
  <rect x="730.0" y="940.0" width="100.0" height="40.0" fill="white" stroke="#c0392b" stroke-width="2"/>
  <text x="780.0" y="967.0" text-anchor="middle" fill="#111">NEGATIVE BUS</text>
  <rect x="720.0" y="1060.0" width="120.0" height="60.0" fill="white" stroke="#1e8449" stroke-width="2"/>
  <text x="780.0" y="1097.0" text-anchor="middle" fill="#111">CHASSIS GROUND</text>
</svg>
