999
Slate 2026 RV Electrical
0
SECTION
2
HEADER
9
$ACADVER
1
AC1009
0
ENDSEC
0
SECTION
2
TABLES
0
TABLE
2
STYLE
70
1
0
STYLE
2
STANDARD
70
0
40
0.0
41
1.0
50
0.0
71
0
42
2.5
3
Arial
4

0
ENDTAB
0
TABLE
2
LAYER
70
4
0
LAYER
2
ELEC-DC
70
0
62
1
6
CONTINUOUS
0
LAYER
2
ELEC-AC
70
0
62
5
6
CONTINUOUS
0
LAYER
2
ELEC-GND
70
0
62
3
6
CONTINUOUS
0
LAYER
2
TEXT
70
0
62
7
6
CONTINUOUS
0
ENDTAB
0
ENDSEC
0
SECTION
2
ENTITIES
0
LINE
8
ELEC-DC
10
120.000
20
1700.000
30
0.0
11
340.000
21
1700.000
31
0.0
0
LINE
8
ELEC-DC
10
340.000
20
1700.000
30
0.0
11
340.000
21
1820.000
31
0.0
0
LINE
8
ELEC-DC
10
340.000
20
1820.000
30
0.0
11
120.000
21
1820.000
31
0.0
0
LINE
8
ELEC-DC
10
120.000
20
1820.000
30
0.0
11
120.000
21
1700.000
31
0.0
0
TEXT
8
TEXT
10
178.800
20
1753.000
30
0.0
40
11.00
1
200W SOLAR PANEL
7
STANDARD
0
LINE
8
ELEC-DC
10
440.000
20
1720.000
30
0.0
11
620.000
21
1720.000
31
0.0
0
LINE
8
ELEC-DC
10
620.000
20
1720.000
30
0.0
11
620.000
21
1800.000
31
0.0
0
LINE
8
ELEC-DC
10
620.000
20
1800.000
30
0.0
11
440.000
21
1800.000
31
0.0
0
LINE
8
ELEC-DC
10
440.000
20
1800.000
30
0.0
11
440.000
21
1720.000
31
0.0
0
TEXT
8
TEXT
10
475.600
20
1753.000
30
0.0
40
11.00
1
25A SOLAR BREAKER
7
STANDARD
0
LINE
8
ELEC-DC
10
720.000
20
1700.000
30
0.0
11
960.000
21
1700.000
31
0.0
0
LINE
8
ELEC-DC
10
960.000
20
1700.000
30
0.0
11
960.000
21
1820.000
31
0.0
0
LINE
8
ELEC-DC
10
960.000
20
1820.000
30
0.0
11
720.000
21
1820.000
31
0.0
0
LINE
8
ELEC-DC
10
720.000
20
1820.000
30
0.0
11
720.000
21
1700.000
31
0.0
0
TEXT
8
TEXT
10
801.600
20
1760.000
30
0.0
40
11.00
1
DC-DC + MPPT
7
STANDARD
0
TEXT
8
TEXT
10
776.000
20
1746.000
30
0.0
40
11.00
1
(Solar + Alt Inputs)
7
STANDARD
0
LINE
8
ELEC-DC
10
1060.000
20
1720.000
30
0.0
11
1260.000
21
1720.000
31
0.0
0
LINE
8
ELEC-DC
10
1260.000
20
1720.000
30
0.0
11
1260.000
21
1800.000
31
0.0
0
LINE
8
ELEC-DC
10
1260.000
20
1800.000
30
0.0
11
1060.000
21
1800.000
31
0.0
0
LINE
8
ELEC-DC
10
1060.000
20
1800.000
30
0.0
11
1060.000
21
1720.000
31
0.0
0
TEXT
8
TEXT
10
1102.400
20
1753.000
30
0.0
40
11.00
1
60A CHARGE BREAKER
7
STANDARD
0
LINE
8
ELEC-DC
10
1360.000
20
1720.000
30
0.0
11
1540.000
21
1720.000
31
0.0
0
LINE
8
ELEC-DC
10
1540.000
20
1720.000
30
0.0
11
1540.000
21
1800.000
31
0.0
0
LINE
8
ELEC-DC
10
1540.000
20
1800.000
30
0.0
11
1360.000
21
1800.000
31
0.0
0
LINE
8
ELEC-DC
10
1360.000
20
1800.000
30
0.0
11
1360.000
21
1720.000
31
0.0
0
TEXT
8
TEXT
10
1402.000
20
1753.000
30
0.0
40
11.00
1
80A ALT BREAKER
7
STANDARD
0
LINE
8
ELEC-DC
10
1640.000
20
1700.000
30
0.0
11
1860.000
21
1700.000
31
0.0
0
LINE
8
ELEC-DC
10
1860.000
20
1700.000
30
0.0
11
1860.000
21
1820.000
31
0.0
0
LINE
8
ELEC-DC
10
1860.000
20
1820.000
30
0.0
11
1640.000
21
1820.000
31
0.0
0
LINE
8
ELEC-DC
10
1640.000
20
1820.000
30
0.0
11
1640.000
21
1700.000
31
0.0
0
TEXT
8
TEXT
10
1702.000
20
1753.000
30
0.0
40
11.00
1
CHASSIS BATTERY
7
STANDARD
0
LINE
8
ELEC-DC
10
730.000
20
1300.000
30
0.0
11
950.000
21
1300.000
31
0.0
0
LINE
8
ELEC-DC
10
950.000
20
1300.000
30
0.0
11
950.000
21
1460.000
31
0.0
0
LINE
8
ELEC-DC
10
950.000
20
1460.000
30
0.0
11
730.000
21
1460.000
31
0.0
0
LINE
8
ELEC-DC
10
730.000
20
1460.000
30
0.0
11
730.000
21
1300.000
31
0.0
0
TEXT
8
TEXT
10
785.600
20
1380.000
30
0.0
40
11.00
1
12V 200Ah LiFePO4
7
STANDARD
0
TEXT
8
TEXT
10
788.800
20
1366.000
30
0.0
40
11.00
1
BATTERY (UL1973)
7
STANDARD
0
LINE
8
ELEC-DC
10
800.000
20
1140.000
30
0.0
11
1000.000
21
1140.000
31
0.0
0
LINE
8
ELEC-DC
10
1000.000
20
1140.000
30
0.0
11
1000.000
21
1220.000
31
0.0
0
LINE
8
ELEC-DC
10
1000.000
20
1220.000
30
0.0
11
800.000
21
1220.000
31
0.0
0
LINE
8
ELEC-DC
10
800.000
20
1220.000
30
0.0
11
800.000
21
1140.000
31
0.0
0
TEXT
8
TEXT
10
845.600
20
1173.000
30
0.0
40
11.00
1
200A MAIN BREAKER
7
STANDARD
0
LINE
8
ELEC-DC
10
700.000
20
1160.000
30
0.0
11
860.000
21
1160.000
31
0.0
0
LINE
8
ELEC-DC
10
860.000
20
1160.000
30
0.0
11
860.000
21
1220.000
31
0.0
0
LINE
8
ELEC-DC
10
860.000
20
1220.000
30
0.0
11
700.000
21
1220.000
31
0.0
0
LINE
8
ELEC-DC
10
700.000
20
1220.000
30
0.0
11
700.000
21
1160.000
31
0.0
0
TEXT
8
TEXT
10
748.000
20
1183.000
30
0.0
40
11.00
1
300A SHUNT
7
STANDARD
0
LINE
8
ELEC-DC
10
850.000
20
1020.000
30
0.0
11
950.000
21
1020.000
31
0.0
0
LINE
8
ELEC-DC
10
950.000
20
1020.000
30
0.0
11
950.000
21
1060.000
31
0.0
0
LINE
8
ELEC-DC
10
950.000
20
1060.000
30
0.0
11
850.000
21
1060.000
31
0.0
0
LINE
8
ELEC-DC
10
850.000
20
1060.000
30
0.0
11
850.000
21
1020.000
31
0.0
0
TEXT
8
TEXT
10
861.600
20
1033.000
30
0.0
40
11.00
1
POSITIVE BUS
7
STANDARD
0
LINE
8
ELEC-DC
10
730.000
20
1020.000
30
0.0
11
830.000
21
1020.000
31
0.0
0
LINE
8
ELEC-DC
10
830.000
20
1020.000
30
0.0
11
830.000
21
1060.000
31
0.0
0
LINE
8
ELEC-DC
10
830.000
20
1060.000
30
0.0
11
730.000
21
1060.000
31
0.0
0
LINE
8
ELEC-DC
10
730.000
20
1060.000
30
0.0
11
730.000
21
1020.000
31
0.0
0
TEXT
8
TEXT
10
741.600
20
1033.000
30
0.0
40
11.00
1
NEGATIVE BUS
7
STANDARD
0
LINE
8
ELEC-GND
10
720.000
20
880.000
30
0.0
11
840.000
21
880.000
31
0.0
0
LINE
8
ELEC-GND
10
840.000
20
880.000
30
0.0
11
840.000
21
940.000
31
0.0
0
LINE
8
ELEC-GND
10
840.000
20
940.000
30
0.0
11
720.000
21
940.000
31
0.0
0
LINE
8
ELEC-GND
10
720.000
20
940.000
30
0.0
11
720.000
21
880.000
31
0.0
0
TEXT
8
TEXT
10
735.200
20
903.000
30
0.0
40
11.00
1
CHASSIS GROUND
7
STANDARD
0
LINE
8
ELEC-AC
10
120.000
20
440.000
30
0.0
11
300.000
21
440.000
31
0.0
0
LINE
8
ELEC-AC
10
300.000
20
440.000
30
0.0
11
300.000
21
520.000
31
0.0
0
LINE
8
ELEC-AC
10
300.000
20
520.000
30
0.0
11
120.000
21
520.000
31
0.0
0
LINE
8
ELEC-AC
10
120.000
20
520.000
30
0.0
11
120.000
21
440.000
31
0.0
0
TEXT
8
TEXT
10
174.800
20
480.000
30
0.0
40
11.00
1
SHORE INLET
7
STANDARD
0
TEXT
8
TEXT
10
194.000
20
466.000
30
0.0
40
11.00
1
(30A)
7
STANDARD
0
LINE
8
ELEC-AC
10
380.000
20
380.000
30
0.0
11
680.000
21
380.000
31
0.0
0
LINE
8
ELEC-AC
10
680.000
20
380.000
30
0.0
11
680.000
21
580.000
31
0.0
0
LINE
8
ELEC-AC
10
680.000
20
580.000
30
0.0
11
380.000
21
580.000
31
0.0
0
LINE
8
ELEC-AC
10
380.000
20
580.000
30
0.0
11
380.000
21
380.000
31
0.0
0
TEXT
8
TEXT
10
466.000
20
487.000
30
0.0
40
11.00
1
INVERTER / CHARGER /
7
STANDARD
0
TEXT
8
TEXT
10
482.000
20
473.000
30
0.0
40
11.00
1
TRANSFER SWITCH
7
STANDARD
0
TEXT
8
TEXT
10
507.600
20
459.000
30
0.0
40
11.00
1
(UL458)
7
STANDARD
0
LINE
8
ELEC-AC
10
780.000
20
420.000
30
0.0
11
1020.000
21
420.000
31
0.0
0
LINE
8
ELEC-AC
10
1020.000
20
420.000
30
0.0
11
1020.000
21
540.000
31
0.0
0
LINE
8
ELEC-AC
10
1020.000
20
540.000
30
0.0
11
780.000
21
540.000
31
0.0
0
LINE
8
ELEC-AC
10
780.000
20
540.000
30
0.0
11
780.000
21
420.000
31
0.0
0
TEXT
8
TEXT
10
852.000
20
480.000
30
0.0
40
11.00
1
AC DISTRIBUTION
7
STANDARD
0
TEXT
8
TEXT
10
884.000
20
466.000
30
0.0
40
11.00
1
PANEL
7
STANDARD
0
LINE
8
ELEC-DC
10
1080.000
20
820.000
30
0.0
11
1520.000
21
820.000
31
0.0
0
LINE
8
ELEC-DC
10
1520.000
20
820.000
30
0.0
11
1520.000
21
1100.000
31
0.0
0
LINE
8
ELEC-DC
10
1520.000
20
1100.000
30
0.0
11
1080.000
21
1100.000
31
0.0
0
LINE
8
ELEC-DC
10
1080.000
20
1100.000
30
0.0
11
1080.000
21
820.000
31
0.0
0
TEXT
8
TEXT
10
1232.800
20
1037.000
30
0.0
40
11.00
1
DC DISTRIBUTION PANEL
7
STANDARD
0
TEXT
8
TEXT
10
1223.200
20
1023.000
30
0.0
40
11.00
1
F1  Heater           15A
7
STANDARD
0
TEXT
8
TEXT
10
1223.200
20
1009.000
30
0.0
40
11.00
1
F2  Water Pump       15A
7
STANDARD
0
TEXT
8
TEXT
10
1223.200
20
995.000
30
0.0
40
11.00
1
F3  Refrigerator     10A
7
STANDARD
0
TEXT
8
TEXT
10
1216.800
20
981.000
30
0.0
40
11.00
1
F4  Fan 1             7.5A
7
STANDARD
0
TEXT
8
TEXT
10
1216.800
20
967.000
30
0.0
40
11.00
1
F5  Fan 2             7.5A
7
STANDARD
0
TEXT
8
TEXT
10
1223.200
20
953.000
30
0.0
40
11.00
1
F6  Ceiling Lights   10A
7
STANDARD
0
TEXT
8
TEXT
10
1216.800
20
939.000
30
0.0
40
11.00
1
F7  Reading Lights    7.5A
7
STANDARD
0
TEXT
8
TEXT
10
1223.200
20
925.000
30
0.0
40
11.00
1
F8  USB A 1          10A
7
STANDARD
0
TEXT
8
TEXT
10
1223.200
20
911.000
30
0.0
40
11.00
1
F9  USB A 2          10A
7
STANDARD
0
TEXT
8
TEXT
10
1223.200
20
897.000
30
0.0
40
11.00
1
F10 12V Socket 1     15A
7
STANDARD
0
TEXT
8
TEXT
10
1223.200
20
883.000
30
0.0
40
11.00
1
F11 12V Socket 2     15A
7
STANDARD
0
TEXT
8
TEXT
10
1223.200
20
869.000
30
0.0
40
11.00
1
F12 USB C 100W       15A
7
STANDARD
0
LINE
8
ELEC-DC
10
340.000
20
1760.000
30
0.0
11
440.000
21
1760.000
31
0.0
0
TEXT
8
TEXT
10
335.600
20
1770.000
30
0.0
40
9.00
1
6 AWG 125\U+00B0C
7
STANDARD
0
LINE
8
ELEC-DC
10
620.000
20
1760.000
30
0.0
11
720.000
21
1760.000
31
0.0
0
TEXT
8
TEXT
10
615.600
20
1770.000
30
0.0
40
9.00
1
6 AWG 125\U+00B0C
7
STANDARD
0
LINE
8
ELEC-DC
10
1640.000
20
1760.000
30
0.0
11
1540.000
21
1760.000
31
0.0
0
TEXT
8
TEXT
10
1535.600
20
1770.000
30
0.0
40
9.00
1
4 AWG 125\U+00B0C
7
STANDARD
0
LINE
8
ELEC-DC
10
1450.000
20
1800.000
30
0.0
11
1450.000
21
1850.000
31
0.0
0
LINE
8
ELEC-DC
10
1450.000
20
1850.000
30
0.0
11
840.000
21
1850.000
31
0.0
0
LINE
8
ELEC-DC
10
840.000
20
1850.000
30
0.0
11
840.000
21
1820.000
31
0.0
0
TEXT
8
TEXT
10
1456.000
20
1825.000
30
0.0
40
9.00
1
4 AWG 125\U+00B0C
7
STANDARD
0
LINE
8
ELEC-DC
10
960.000
20
1760.000
30
0.0
11
1060.000
21
1760.000
31
0.0
0
TEXT
8
TEXT
10
955.600
20
1770.000
30
0.0
40
9.00
1
4 AWG 125\U+00B0C
7
STANDARD
0
LINE
8
ELEC-DC
10
1160.000
20
1720.000
30
0.0
11
1160.000
21
1040.000
31
0.0
0
LINE
8
ELEC-DC
10
1160.000
20
1040.000
30
0.0
11
950.000
21
1040.000
31
0.0
0
TEXT
8
TEXT
10
1166.000
20
1380.000
30
0.0
40
9.00
1
4 AWG 125\U+00B0C
7
STANDARD
0
LINE
8
ELEC-DC
10
720.000
20
1700.000
30
0.0
11
640.000
21
1700.000
31
0.0
0
LINE
8
ELEC-DC
10
640.000
20
1700.000
30
0.0
11
640.000
21
1040.000
31
0.0
0
LINE
8
ELEC-DC
10
640.000
20
1040.000
30
0.0
11
730.000
21
1040.000
31
0.0
0
LINE
8
ELEC-DC
10
900.000
20
1380.000
30
0.0
11
900.000
21
1220.000
31
0.0
0
TEXT
8
TEXT
10
906.000
20
1300.000
30
0.0
40
9.00
1
2/0 AWG 125\U+00B0C
7
STANDARD
0
LINE
8
ELEC-DC
10
780.000
20
1380.000
30
0.0
11
780.000
21
1220.000
31
0.0
0
TEXT
8
TEXT
10
786.000
20
1300.000
30
0.0
40
9.00
1
2/0 AWG 125\U+00B0C
7
STANDARD
0
LINE
8
ELEC-DC
10
900.000
20
1140.000
30
0.0
11
900.000
21
1060.000
31
0.0
0
TEXT
8
TEXT
10
906.000
20
1100.000
30
0.0
40
9.00
1
2/0 AWG 125\U+00B0C
7
STANDARD
0
LINE
8
ELEC-DC
10
780.000
20
1160.000
30
0.0
11
780.000
21
1060.000
31
0.0
0
TEXT
8
TEXT
10
786.000
20
1110.000
30
0.0
40
9.00
1
2/0 AWG 125\U+00B0C
7
STANDARD
0
LINE
8
ELEC-GND
10
780.000
20
1020.000
30
0.0
11
780.000
21
940.000
31
0.0
0
TEXT
8
TEXT
10
786.000
20
980.000
30
0.0
40
9.00
1
2/0 AWG 125\U+00B0C
7
STANDARD
0
LINE
8
ELEC-AC
10
300.000
20
480.000
30
0.0
11
380.000
21
480.000
31
0.0
0
TEXT
8
TEXT
10
288.800
20
490.000
30
0.0
40
9.00
1
10/3 125\U+00B0C
7
STANDARD
0
LINE
8
ELEC-AC
10
680.000
20
480.000
30
0.0
11
780.000
21
480.000
31
0.0
0
TEXT
8
TEXT
10
678.800
20
490.000
30
0.0
40
9.00
1
10/3 125\U+00B0C
7
STANDARD
0
LINE
8
ELEC-AC
10
1020.000
20
520.000
30
0.0
11
1180.000
21
520.000
31
0.0
0
TEXT
8
TEXT
10
1061.600
20
530.000
30
0.0
40
9.00
1
GFCI 1 (15A)
7
STANDARD
0
LINE
8
ELEC-AC
10
1020.000
20
490.000
30
0.0
11
1180.000
21
490.000
31
0.0
0
TEXT
8
TEXT
10
1061.600
20
500.000
30
0.0
40
9.00
1
GFCI 2 (15A)
7
STANDARD
0
LINE
8
ELEC-AC
10
1020.000
20
460.000
30
0.0
11
1180.000
21
460.000
31
0.0
0
TEXT
8
TEXT
10
1045.600
20
470.000
30
0.0
40
9.00
1
OPTIONAL AC (20A)
7
STANDARD
0
LINE
8
ELEC-DC
10
850.000
20
1040.000
30
0.0
11
850.000
21
640.000
31
0.0
0
LINE
8
ELEC-DC
10
850.000
20
640.000
30
0.0
11
560.000
21
640.000
31
0.0
0
LINE
8
ELEC-DC
10
560.000
20
640.000
30
0.0
11
560.000
21
580.000
31
0.0
0
TEXT
8
TEXT
10
856.000
20
840.000
30
0.0
40
9.00
1
2/0 AWG 125\U+00B0C
7
STANDARD
0
LINE
8
ELEC-DC
10
730.000
20
1040.000
30
0.0
11
680.000
21
1040.000
31
0.0
0
LINE
8
ELEC-DC
10
680.000
20
1040.000
30
0.0
11
680.000
21
660.000
31
0.0
0
LINE
8
ELEC-DC
10
680.000
20
660.000
30
0.0
11
480.000
21
660.000
31
0.0
0
LINE
8
ELEC-DC
10
480.000
20
660.000
30
0.0
11
480.000
21
580.000
31
0.0
0
TEXT
8
TEXT
10
644.200
20
1050.000
30
0.0
40
9.00
1
2/0 AWG 125\U+00B0C
7
STANDARD
0
LINE
8
ELEC-DC
10
950.000
20
1040.000
30
0.0
11
1080.000
21
1040.000
31
0.0
0
TEXT
8
TEXT
10
954.200
20
1050.000
30
0.0
40
9.00
1
2/0 AWG 125\U+00B0C
7
STANDARD
0
LINE
8
ELEC-DC
10
830.000
20
1040.000
30
0.0
11
830.000
21
960.000
31
0.0
0
LINE
8
ELEC-DC
10
830.000
20
960.000
30
0.0
11
1080.000
21
960.000
31
0.0
0
TEXT
8
TEXT
10
120.000
20
1950.000
30
0.0
40
22.00
1
SLATE 2026 RV - CHARGING SYSTEM (PHASE 1 LOCK)
7
STANDARD
0
TEXT
8
TEXT
10
120.000
20
1915.000
30
0.0
40
12.00
1
One-line schematic. Not a physical installation layout.
7
STANDARD
0
TEXT
8
TEXT
10
120.000
20
1890.000
30
0.0
40
12.00
1
Layers: ELEC-DC (red), ELEC-AC (blue), ELEC-GND (green), TEXT.
7
STANDARD
0
ENDSEC
0
EOF
